# xmcd
#
# Track frame offsets: 
#        150
#        16257
#        30251
#        49294
#        62285
#        74481
#        92597
#        112103
#        125055
#        141057
#        153788
#        167823
#        177563
#        193779
#        208189
#        225114
#        238346
#        254213
#        269627
#        286231
#
# Disc length: 4059 seconds
#
# Revision: 0
# Processed by: cddbd v1.5.2PL0 Copyright (c) Steve Scherf et al.
# Submitted via: ExactAudioCopy v0.99pb4
#
DISCID=290fd914
DTITLE=Mervyn J Futter - You Are No Angel
DYEAR=1998
DGENRE=Country
TTITLE0=I Never Did Know
TTITLE1=Making Believe
TTITLE2=One Night At A Time
TTITLE3=Back On My Mind Again
TTITLE4=Crazy Arms
TTITLE5=Garden Party
TTITLE6=Native American
TTITLE7=Ladder Of Love
TTITLE8=Blue Rose Is
TTITLE9=Bye Bye Travellin' Blues
TTITLE10=The Strangest Dream
TTITLE11=If I Could Make A Living Out Of Loving You
TTITLE12=The Cowboy Rides Away
TTITLE13=Smokey Places
TTITLE14=You Are No Angel
TTITLE15=Blue Clear Sky
TTITLE16=We Believe In Happy Endings
TTITLE17=Run For The Border
TTITLE18=When You Say Nothing At All
TTITLE19=Gonna Get A Life
EXTD=
EXTT0=
EXTT1=
EXTT2=
EXTT3=
EXTT4=
EXTT5=
EXTT6=
EXTT7=
EXTT8=
EXTT9=
EXTT10=
EXTT11=
EXTT12=
EXTT13=
EXTT14=
EXTT15=
EXTT16=
EXTT17=
EXTT18=
EXTT19=
PLAYORDER=
